<?xml version="1.0" encoding="UTF-8"?>
<!-- Generator: visioncortex VTracer 0.6.12 -->
<svg version="1.1" xmlns="http://www.w3.org/2000/svg" width="586" height="536">

<path d="M0 0 C4.41095 -0.04063 8.8218 -0.06485 13.23291 -0.0791 C14.53664 -0.08394 15.84036 -0.08877 17.18359 -0.09375 C42.79422 -0.04734 42.79422 -0.04734 50.54541 7.2959 C54.54848 14.07033 51.39106 23.88822 50.15869 31.22168 C49.94859 32.50028 49.73849 33.77889 49.52202 35.09624 C49.07614 37.80758 48.62606 40.51818 48.17261 43.22827 C47.60635 46.61306 47.04774 49.99905 46.49202 53.38559 C43.92543 69.01608 41.20201 84.61227 38.27271 100.17944 C38.08969 101.1557 37.90667 102.13195 37.71811 103.13779 C37.34581 105.11457 36.96887 107.09048 36.5878 109.06558 C36.40535 110.02886 36.22289 110.99215 36.03491 111.98462 C35.87143 112.83522 35.70794 113.68583 35.53951 114.56221 C34.96586 118.42234 35.04268 122.15026 35.17041 126.0459 C38.47041 126.3759 41.77041 126.7059 45.17041 127.0459 C45.23829 126.68875 45.23829 126.68875 45.58179 124.88135 C46.21384 121.56088 46.84837 118.24089 47.48291 114.9209 C47.69625 113.79812 47.90959 112.67535 48.12939 111.51855 C49.23774 105.72869 50.40091 99.96112 51.67822 94.20605 C53.52334 85.68703 54.77374 77.09521 56.0481 68.47681 C56.35725 66.39639 56.67189 64.31685 56.98682 62.2373 C57.16672 61.02244 57.34663 59.80758 57.53198 58.55591 C58.1897 54.93982 59.10391 51.55919 60.17041 48.0459 C67.07419 49.20352 73.332 50.99816 79.79541 53.6709 C80.22882 53.84831 80.22882 53.84831 82.42212 54.74609 C114.88447 68.23307 145.507 89.10385 167.17041 117.0459 C168.64934 118.77527 170.12851 120.50443 171.60791 122.2334 C192.72993 148.13084 205.38355 180.46974 211.17041 213.0459 C211.2919 213.72443 211.4134 214.40296 211.53857 215.10205 C212.86846 222.79752 213.27529 230.22174 213.21729 238.01074 C213.2139 238.8834 213.21052 239.75605 213.20703 240.65515 C213.19828 242.78542 213.18483 244.91566 213.17041 247.0459 C212.60306 247.04763 212.03571 247.04937 211.45116 247.05116 C177.77278 247.15435 144.09441 247.26249 110.41606 247.37702 C106.36592 247.39078 102.31577 247.40451 98.26562 247.41821 C97.8625 247.41958 97.8625 247.41958 95.82241 247.42648 C82.79348 247.47047 69.76454 247.51113 56.73559 247.55055 C43.35163 247.59112 29.96769 247.6353 16.58376 247.68278 C8.33525 247.71193 0.08674 247.73831 -8.16179 247.76108 C-13.82973 247.77699 -19.49766 247.79644 -25.16558 247.81857 C-28.42824 247.8312 -31.69089 247.84185 -34.95357 247.84932 C-47.94849 247.87998 -60.87255 247.97592 -73.82959 249.0459 C-73.82959 252.0159 -73.82959 254.9859 -73.82959 258.0459 C-70.71589 258.82432 -68.69403 259.17008 -65.59735 259.16615 C-65.17605 259.16684 -65.17605 259.16684 -63.04399 259.17032 C-62.58343 259.16852 -62.58343 259.16852 -60.25272 259.15942 C-59.26963 259.15957 -58.28655 259.15972 -57.27368 259.15987 C-53.96693 259.15918 -50.66025 259.15133 -47.35352 259.14355 C-44.98378 259.14164 -42.61403 259.14017 -40.24429 259.13913 C-34.45146 259.13555 -28.65864 259.12745 -22.86581 259.11767 C-16.05373 259.10653 -9.24165 259.10203 -2.42956 259.09813 C9.81129 259.09105 22.05213 259.08025 34.29297 259.06641 C35.02598 259.06558 35.75899 259.06475 36.51421 259.0639 C43.15109 259.05637 49.78797 259.04859 56.42485 259.0407 C183.85808 258.88916 183.85808 258.88916 220.35413 259.25443 C223.27204 259.28343 226.18979 259.30409 229.10781 259.31662 C232.95605 259.33389 236.80346 259.38265 240.65137 259.43652 C241.72753 259.43776 242.80369 259.43899 243.91246 259.44026 C250.13412 259.56461 254.99931 260.42033 260.17041 264.0459 C263.55789 267.69396 265.28148 270.16389 265.34741 275.10913 C265.36025 275.94728 265.37308 276.78543 265.38631 277.64897 C265.39 278.10312 265.39 278.10312 265.40869 280.40137 C265.41676 281.33637 265.42483 282.27136 265.43315 283.2347 C265.447 285.21772 265.45772 287.20078 265.46558 289.18384 C265.48274 292.20408 265.52662 295.22321 265.5708 298.24316 C265.58093 300.17089 265.58945 302.09863 265.59619 304.02637 C265.6137 304.92454 265.63121 305.82271 265.64925 306.74809 C265.62882 312.70863 264.60172 316.14294 261.17041 321.0459 C259.34619 322.78809 259.34619 322.78809 257.48291 323.9209 C256.88092 324.3102 256.27893 324.69949 255.65869 325.10059 C249.38177 327.48522 242.16809 327.19246 235.52766 327.17174 C234.70261 327.17319 233.87756 327.17465 233.02751 327.17614 C230.27494 327.17978 227.52242 327.17633 224.76985 327.17288 C222.77153 327.17403 220.77322 327.17562 218.7749 327.17761 C213.29249 327.18178 207.8101 327.17972 202.3277 327.17662 C196.41137 327.17436 190.49506 327.17785 184.57874 327.1806 C173.66036 327.18479 162.742 327.18443 151.82362 327.18169 C141.73354 327.17917 131.64346 327.17852 121.55338 327.17971 C121.21852 327.17975 121.21852 327.17975 119.5239 327.17995 C116.80509 327.18026 114.08628 327.18058 111.36747 327.18091 C85.86579 327.18396 60.36412 327.18119 34.86244 327.17581 C12.2238 327.17107 -10.41483 327.17149 -33.05347 327.17627 C-58.50145 327.18163 -83.94942 327.18374 -109.3974 327.18066 C-112.11276 327.18034 -114.82812 327.18002 -117.54348 327.17971 C-117.87776 327.17967 -117.87776 327.17967 -119.56944 327.17947 C-129.64777 327.17834 -139.7261 327.17966 -149.80443 327.18219 C-161.27247 327.185 -172.7405 327.18423 -184.20854 327.17891 C-190.05728 327.17629 -195.90602 327.17525 -201.75476 327.17856 C-207.11459 327.18155 -212.47439 327.17988 -217.83421 327.17458 C-219.76755 327.17347 -221.7009 327.17402 -223.63424 327.17646 C-254.91027 327.21283 -254.91027 327.21283 -262.15771 320.93262 C-266.07505 316.51189 -266.12502 312.43166 -266.09521 306.69434 C-266.09617 306.2873 -266.09617 306.2873 -266.10101 304.22745 C-266.10237 302.50433 -266.09869 300.7812 -266.09033 299.05811 C-266.07971 296.45093 -266.09019 293.84446 -266.10303 291.2373 C-266.12564 269.70416 -266.12564 269.70416 -262.14893 265.1001 C-257.03118 260.39058 -252.57443 259.89107 -245.77808 259.84058 C-244.95834 259.83068 -244.1386 259.82078 -243.29402 259.81058 C-240.58325 259.77898 -237.87246 259.75421 -235.16162 259.72949 C-233.2826 259.70892 -231.40359 259.68792 -229.52458 259.66652 C-224.57789 259.61131 -219.63115 259.5619 -214.68439 259.51367 C-209.63705 259.46345 -204.58977 259.40777 -199.54248 259.35254 C-189.63824 259.24497 -179.73394 259.14353 -169.82959 259.0459 C-169.99459 257.0659 -169.99459 257.0659 -170.82959 247.0459 C-185.34959 247.0459 -199.86959 247.0459 -214.82959 247.0459 C-212.3367 194.69531 -196.48906 149.62441 -161.82959 110.0459 C-160.76594 108.75518 -159.70321 107.4637 -158.64209 106.1709 C-156.00947 103.11076 -153.0759 100.51393 -149.99756 97.90918 C-148.53207 96.64965 -147.09723 95.35371 -145.69287 94.02637 C-122.29957 71.98344 -92.54725 57.51089 -61.82959 49.0459 C-59.29078 51.58471 -59.19253 53.24069 -58.49756 56.74902 C-58.25884 57.9427 -58.02012 59.13637 -57.77417 60.36621 C-57.52138 61.67602 -57.26903 62.98592 -57.01709 64.2959 C-56.75253 65.64229 -56.4878 66.98864 -56.2229 68.33496 C-54.12875 79.07808 -52.28395 89.8585 -50.56665 100.66797 C-47.69687 118.57817 -47.69687 118.57817 -45.82959 125.0459 C-43.30905 126.30617 -41.97538 125.96464 -39.20459 125.6084 C-38.79596 125.55748 -38.79596 125.55748 -36.72803 125.2998 C-36.10154 125.21602 -35.47506 125.13223 -34.82959 125.0459 C-35.31637 119.594 -36.12709 114.296 -37.16553 108.9209 C-38.32533 102.83785 -39.41338 96.74608 -40.44287 90.63965 C-40.57959 89.82902 -40.7163 89.01839 -40.85716 88.1832 C-41.1402 86.50236 -41.42298 84.82148 -41.70551 83.14056 C-44.30099 67.71532 -47.01815 52.32037 -49.96362 36.95801 C-54.91268 11.08177 -54.91268 11.08177 -50.82959 5.0459 C-45.77241 1.61364 -41.92007 0.44721 -35.7749 0.43652 C-35.39158 0.42821 -35.39158 0.42821 -33.45174 0.38614 C-30.95259 0.33704 -28.45412 0.31584 -25.95459 0.2959 C-24.21181 0.26875 -22.46905 0.24025 -20.72632 0.21045 C-16.28585 0.14073 -11.84561 0.09704 -7.40472 0.06482 C-4.93644 0.04668 -2.46824 0.02397 0 0 Z M-95.82959 88.0459 C-113.58431 96.04528 -129.64279 108.75733 -142.82959 123.0459 C-143.10223 123.33916 -143.10223 123.33916 -144.48193 124.82324 C-154.92514 136.40312 -163.05559 149.05612 -169.82959 163.0459 C-170.19697 163.74844 -170.56436 164.45098 -170.94287 165.1748 C-172.14243 167.70603 -172.32523 169.28447 -171.82959 172.0459 C-168.45297 174.84367 -166.09636 175.18215 -161.82959 175.0459 C-161.70169 174.78954 -161.70169 174.78954 -161.05444 173.49219 C-155.74903 162.93572 -150.40517 153.16419 -142.82959 144.0459 C-142.60433 143.77399 -142.60433 143.77399 -141.46436 142.39795 C-139.10769 139.56143 -136.72943 136.74552 -134.32178 133.95215 C-132.90879 132.3044 -131.50819 130.64527 -130.1499 128.95215 C-126.03017 123.83158 -121.04522 120.00741 -115.82959 116.0459 C-114.88729 115.32273 -113.94498 114.59957 -112.97412 113.85449 C-105.74217 108.36127 -98.32944 103.16273 -90.82959 98.0459 C-91.3219 91.52282 -91.3219 91.52282 -93.89209 89.1084 C-94.53146 88.75777 -95.17084 88.40715 -95.82959 88.0459 Z M-123.82959 139.0459 C-124.39106 139.5645 -124.95252 140.08311 -125.53101 140.61743 C-126.82959 142.0459 -126.82959 142.0459 -126.82959 144.0459 C-127.48959 144.0459 -128.14959 144.0459 -128.82959 144.0459 C-130.32774 145.91019 -131.68163 147.75623 -133.01709 149.7334 C-133.41203 150.31702 -133.80696 150.90064 -134.21387 151.50195 C-135.43752 153.33867 -136.63869 155.18779 -137.82959 157.0459 C-138.19939 157.62227 -138.56919 158.19864 -138.9502 158.79248 C-145.41902 169.10635 -145.41902 169.10635 -145.01709 175.2334 C-143.82959 179.0459 -143.82959 179.0459 -141.94287 180.2959 C-138.90894 181.37264 -136.90643 180.87921 -133.82959 180.0459 C-130.47629 177.96852 -129.09697 176.06254 -127.51709 172.4834 C-119.88011 156.61495 -107.23913 143.88176 -92.82959 134.0459 C-89.70564 131.64496 -88.00589 130.00576 -87.26709 125.9834 C-87.82959 123.0459 -87.82959 123.0459 -89.39209 120.6709 C-101.36582 112.68841 -116.08142 131.4385 -123.82959 139.0459 Z M-102.76709 155.6709 C-103.34733 156.23317 -103.92757 156.79544 -104.52539 157.37476 C-104.79666 157.64663 -104.79666 157.64663 -106.16943 159.02246 C-106.65791 159.50795 -107.14638 159.99345 -107.64966 160.49365 C-108.82959 162.0459 -108.82959 162.0459 -109.30835 164.17236 C-109.48036 164.79063 -109.65237 165.4089 -109.82959 166.0459 C-110.81959 166.3759 -111.80959 166.7059 -112.82959 167.0459 C-116.77154 171.63119 -120.01685 177.88982 -119.82959 184.0459 C-117.45459 187.1084 -117.45459 187.1084 -114.82959 189.0459 C-112.03036 188.66169 -110.2724 188.36952 -107.82959 187.0459 C-106.29008 184.95656 -105.21622 182.81698 -104.07568 180.4873 C-102.11885 176.65339 -99.5003 173.40377 -96.82959 170.0459 C-96.39518 169.47613 -95.96076 168.90637 -95.51318 168.31934 C-92.92759 165.02858 -90.44626 163.08607 -86.82959 161.0459 C-85.45396 159.75625 -84.12193 158.41901 -82.82959 157.0459 C-82.37584 156.65402 -82.37584 156.65402 -80.07959 154.6709 C-77.82959 152.0459 -77.82959 152.0459 -77.32959 148.9209 C-77.82959 146.0459 -77.82959 146.0459 -78.89209 144.1709 C-88.43428 138.63027 -96.61532 149.65928 -102.76709 155.6709 Z M-158.64209 247.3584 C-160.29322 249.70474 -160.69836 251.15887 -160.82959 254.0459 C-158.63981 260.50575 -158.63981 260.50575 -154.82959 263.0459 C-150.69884 263.51249 -146.54635 263.41624 -142.39209 263.4209 C-141.81942 263.43314 -141.81942 263.43314 -138.92139 263.49512 C-137.81988 263.49898 -136.71838 263.50285 -135.5835 263.50684 C-135.07984 263.51094 -135.07984 263.51094 -132.53101 263.53174 C-129.12465 262.91912 -127.9811 261.69434 -125.82959 259.0459 C-124.26023 255.90719 -124.47758 253.50734 -124.82959 250.0459 C-126.89041 247.10311 -128.53661 245.34274 -132.11279 244.52173 C-134.83993 244.25493 -137.52745 244.15194 -140.26709 244.1084 C-141.19586 244.0665 -142.12463 244.02461 -143.08154 243.98145 C-148.77867 243.79897 -153.84324 243.88337 -158.64209 247.3584 Z M-118.82959 249.0459 C-120.15059 253.50427 -120.23898 255.28359 -118.01709 259.4209 C-115.82959 262.0459 -115.82959 262.0459 -113.82959 263.0459 C-109.54439 263.36998 -105.25053 263.37036 -100.95459 263.4209 C-100.35582 263.43959 -100.35582 263.43959 -97.32568 263.53418 C-96.17455 263.54578 -95.02342 263.55738 -93.8374 263.56934 C-92.78182 263.58916 -91.72624 263.60897 -90.63867 263.62939 C-87.82959 263.0459 -87.82959 263.0459 -85.4895 260.64209 C-83.89037 258.14096 -83.26122 256.95589 -83.26709 254.0459 C-83.24518 253.40652 -83.22326 252.76715 -83.20068 252.1084 C-84.31522 248.45327 -85.6673 247.24821 -88.82959 245.0459 C-93.1945 244.32231 -97.47796 244.3942 -101.89209 244.4834 C-103.07609 244.47244 -104.2601 244.46148 -105.47998 244.4502 C-115.31703 244.5338 -115.31703 244.5338 -118.82959 249.0459 Z " fill="#FEFEFE" transform="translate(292.82958984375,25.9541015625)"/>
<path d="M0 0 C1.71868 -0.00322 3.43737 -0.00658 5.15605 -0.01009 C8.73726 -0.01604 12.31844 -0.01793 15.89966 -0.01733 C20.48035 -0.01723 25.06089 -0.03095 29.64155 -0.04811 C33.18207 -0.05923 36.72255 -0.06125 40.26308 -0.06072 C41.95232 -0.0619 43.64156 -0.0663 45.33077 -0.07406 C47.68978 -0.08388 50.04846 -0.08097 52.40747 -0.07495 C53.09798 -0.08057 53.78848 -0.08619 54.49991 -0.09198 C64.1152 -0.0298 70.91208 4.54872 77.94922 10.66797 C82.57409 16.109 83.82757 21.20395 84.07422 28.16797 C83.79885 31.56423 83.24754 34.88005 82.63672 38.23047 C82.48912 39.09607 82.34152 39.96168 82.18945 40.85352 C81.82863 42.96023 81.45299 45.0644 81.07422 47.16797 C82.02039 47.4477 82.96656 47.72742 83.94141 48.01562 C139.06602 64.59186 189.25012 101.01436 217.16992 152.17578 C219.2798 156.20408 221.27783 160.28245 223.22803 164.39014 C223.95028 165.90758 224.69192 167.41576 225.4375 168.92188 C238.99065 197.13185 244.49389 229.06547 244.07422 260.16797 C244.76645 260.09578 245.45867 260.02359 246.17188 259.94922 C261.45044 258.49987 273.75509 257.46449 286.44922 266.98047 C292.71862 272.26566 295.66053 277.53055 296.39062 285.71484 C296.47831 287.11554 296.56 288.51663 296.63672 289.91797 C296.67845 290.66732 296.72019 291.41667 296.76318 292.18872 C298.66959 329.27034 298.66959 329.27034 290.07422 340.23047 C282.58331 348.31939 274.71305 350.5589 264.07422 351.16797 C258.59721 351.3042 253.12272 351.30918 247.64453 351.30078 C246.08039 351.30146 244.51626 351.30243 242.95212 351.30368 C239.69626 351.30514 236.44043 351.30304 233.18457 351.29834 C229.01859 351.29261 224.85267 351.29595 220.68669 351.30191 C217.46619 351.30553 214.24571 351.30438 211.0252 351.30178 C209.48866 351.30112 207.95211 351.30193 206.41556 351.30426 C204.27196 351.30681 202.12846 351.30292 199.98486 351.29736 C198.76784 351.29657 197.55081 351.29577 196.29691 351.29495 C193.42795 351.18191 190.86079 350.83078 188.07422 350.16797 C188.23406 350.87051 188.39391 351.57305 188.55859 352.29688 C189.65472 358.40029 189.92186 364.71428 187.88672 370.60547 C183.54646 376.7417 178.53894 380.70425 171.07422 382.16797 C169.12249 382.24857 167.16821 382.27559 165.21484 382.26562 C164.0998 382.2624 162.98477 382.25918 161.83594 382.25586 C160.67707 382.24748 159.5182 382.2391 158.32422 382.23047 C157.73705 382.22821 157.73705 382.22821 154.76562 382.2168 C151.86844 382.20502 148.97135 382.18857 146.07422 382.16797 C145.88956 382.74515 145.7049 383.32232 145.51465 383.91699 C143.6688 389.58587 141.45842 394.95401 138.96484 400.37109 C137.95517 403.54182 137.9434 405.0569 139.07422 408.16797 C140.5625 409.82813 140.5625 409.82813 142.38672 411.23047 C143.0132 411.73191 143.63969 412.23336 144.28516 412.75 C144.87555 413.21793 145.46594 413.68586 146.07422 414.16797 C148.51172 416.41797 148.51172 416.41797 150.07422 418.16797 C150.07422 418.82797 150.07422 419.48797 150.07422 420.16797 C150.73422 420.16797 151.39422 420.16797 152.07422 420.16797 C155.2281 423.55839 157.95675 426.58637 159.07422 431.16797 C158.67028 438.57348 155.81775 443.63385 151.07422 449.16797 C149.46711 450.54773 147.81965 451.88178 146.13672 453.16797 C142.52531 455.99086 139.27791 458.88418 136.07422 462.16797 C119.40673 478.25545 119.40673 478.25545 109.07422 479.16797 C101.25823 476.91336 95.18052 471.16447 89.42188 465.60938 C88.99326 465.19623 88.99326 465.19623 86.82422 463.10547 C86.05594 462.33074 85.28766 461.55602 84.49609 460.75781 C82.07422 459.16797 82.07422 459.16797 79.10938 459.26562 C75.19383 460.42971 71.77104 462.14898 68.14844 464.01172 C64.15934 465.51207 60.30228 465.85517 56.07422 466.16797 C56.08469 466.59151 56.08469 466.59151 56.1377 468.73486 C56.20616 471.89937 56.25616 475.0635 56.29395 478.22852 C56.31397 479.5942 56.3412 480.9598 56.37598 482.3252 C56.42488 484.29584 56.44513 486.26713 56.46484 488.23828 C56.48579 489.4218 56.50674 490.60532 56.52832 491.82471 C55.87992 496.59847 53.77022 499.79749 50.03906 502.8125 C49.37004 503.19793 48.70102 503.58336 48.01172 503.98047 C47.34012 504.37879 46.66852 504.77711 45.97656 505.1875 C42.74941 506.85078 40.11801 507.30125 36.54614 507.34497 C35.63122 507.35781 34.71629 507.37064 33.77364 507.38387 C32.78615 507.39125 31.79866 507.39864 30.78125 507.40625 C29.76125 507.41432 28.74126 507.42239 27.69035 507.43071 C25.52918 507.44455 23.36799 507.45527 21.20679 507.46313 C17.91673 507.48031 14.62768 507.5242 11.33789 507.56836 C9.23568 507.57849 7.13347 507.587 5.03125 507.59375 C4.05388 507.61126 3.07652 507.62877 2.06953 507.6468 C-5.12337 507.62419 -10.52337 506.1701 -15.98438 501.35156 C-16.43941 500.77535 -16.89445 500.19914 -17.36328 499.60547 C-17.83637 499.02668 -18.30945 498.44789 -18.79688 497.85156 C-21.17224 494.30907 -21.04283 491.09967 -21.02344 486.96875 C-21.02021 485.76025 -21.01699 484.55176 -21.01367 483.30664 C-21.00529 482.044 -20.99691 480.78137 -20.98828 479.48047 C-20.98377 478.20623 -20.97926 476.93199 -20.97461 475.61914 C-20.96281 472.4687 -20.94635 469.31836 -20.92578 466.16797 C-21.48991 466.13639 -22.05403 466.1048 -22.63525 466.07227 C-28.2525 465.62486 -32.39589 464.38805 -37.30078 461.66797 C-43.76373 458.22199 -43.76373 458.22199 -46.92578 457.16797 C-46.92578 457.82797 -46.92578 458.48797 -46.92578 459.16797 C-48.32422 460.57813 -48.32422 460.57813 -50.30078 462.23047 C-53.60205 465.01846 -56.77445 467.89926 -59.92578 470.85547 C-65.25508 475.61522 -69.92936 479.57411 -77.36328 479.35547 C-83.08759 478.34932 -86.72115 474.9782 -90.92578 471.16797 C-91.40483 470.74097 -91.88388 470.31396 -92.37744 469.87402 C-97.89724 464.95234 -103.31024 459.92306 -108.48438 454.63672 C-109.76975 453.32696 -111.09532 452.05691 -112.42578 450.79297 C-122.54075 440.17225 -122.54075 440.17225 -123.23828 432.91797 C-122.63292 425.65362 -118.47306 421.38197 -113.51172 416.45312 C-111.92578 415.16797 -111.92578 415.16797 -109.92578 415.16797 C-109.92578 414.50797 -109.92578 413.84797 -109.92578 413.16797 C-108.95641 412.59047 -107.98703 412.01297 -106.98828 411.41797 C-103.92578 409.16797 -103.92578 409.16797 -103.02734 406.45703 C-102.90076 402.35766 -104.25765 399.74854 -106.23828 396.29297 C-109.04055 391.21138 -110.69618 386.84788 -111.92578 381.16797 C-112.70703 381.18368 -113.48829 381.19939 -114.29321 381.21558 C-117.85816 381.27822 -121.42299 381.31705 -124.98828 381.35547 C-125.60284 381.36804 -125.60284 381.36804 -128.71289 381.43164 C-136.20522 381.49223 -141.90766 381.53406 -147.85156 376.55469 C-148.08037 376.27432 -148.08037 376.27432 -149.23828 374.85547 C-149.70879 374.30246 -150.1793 373.74945 -150.66406 373.17969 C-153.82957 368.13251 -154.19734 363.11003 -154.05078 357.29297 C-154.04176 356.60461 -154.03273 355.91625 -154.02344 355.20703 C-154.00011 353.52719 -153.96424 351.84753 -153.92578 350.16797 C-154.22375 350.17423 -154.22375 350.17423 -155.73167 350.20593 C-162.07748 350.33881 -168.42336 350.46798 -174.76929 350.59521 C-177.12054 350.64281 -179.47178 350.69128 -181.823 350.74072 C-194.41004 351.00481 -206.99597 351.21994 -219.58594 351.26172 C-220.59628 351.2682 -221.60661 351.27469 -222.64757 351.28137 C-233.39224 351.28816 -243.27476 351.02143 -251.75 343.5625 C-253.312 341.84312 -254.62761 340.09284 -255.92578 338.16797 C-256.12623 337.8992 -256.12623 337.8992 -257.14062 336.53906 C-263.69854 326.10708 -261.0077 309.74393 -260.78061 297.90936 C-260.75259 296.38427 -260.73007 294.85906 -260.71329 293.3338 C-260.59131 283.76446 -260.37095 276.35678 -253.84766 268.74219 C-243.15964 259.45745 -233.1282 259.11193 -219.42578 259.04297 C-219.02464 259.04059 -219.02464 259.04059 -216.99463 259.02856 C-211.17103 259.04535 -211.17103 259.04535 -208.92578 260.16797 C-208.88614 259.21245 -208.8465 258.25693 -208.80566 257.27246 C-207.25631 221.14236 -207.25631 221.14236 -202.92578 205.16797 C-202.70374 204.33813 -202.4817 203.5083 -202.25293 202.65332 C-193.22964 169.5762 -177.36406 140.65883 -154.57031 115.03516 C-153.00269 113.25529 -151.49688 111.43531 -149.98828 109.60547 C-147.28787 106.45025 -144.32759 103.77688 -141.16016 101.09766 C-139.59469 99.74566 -138.0658 98.3507 -136.56641 96.92578 C-121.20753 82.35812 -102.8322 71.21078 -83.82324 62.08203 C-82.09329 61.24866 -80.37229 60.39679 -78.65234 59.54297 C-68.4479 54.60782 -57.16646 50.06372 -45.92578 48.16797 C-45.99797 47.74387 -45.99797 47.74387 -46.36328 45.59766 C-50.10593 21.9462 -50.10593 21.9462 -44.47656 12.28906 C-40.40562 6.721 -35.52631 3.25813 -28.92578 1.16797 C-19.384 -0.29658 -9.62751 0.00427 0 0 Z M7.85791 12.20605 C3.4206 12.24158 -1.01587 12.30162 -5.45267 12.3775 C-7.17285 12.40429 -8.89315 12.42469 -10.61349 12.43842 C-13.03342 12.45971 -15.45167 12.50612 -17.87109 12.55859 C-18.58332 12.55983 -19.29554 12.56107 -20.02934 12.56235 C-25.45166 12.72067 -28.54126 14.19224 -32.92578 17.16797 C-37.26788 23.58672 -34.87461 33.10976 -33.65234 40.21875 C-33.5862 40.60928 -33.5862 40.60928 -33.25145 42.58557 C-31.77337 51.21597 -30.13989 59.81705 -28.50864 68.41953 C-25.6485 83.52635 -22.96959 98.62266 -20.73438 113.83594 C-19.81463 120.05564 -18.65933 126.21938 -17.44141 132.38672 C-16.92578 135.16797 -16.92578 135.16797 -16.92578 137.16797 C-18.57578 137.33297 -18.57578 137.33297 -26.92578 138.16797 C-28.56302 134.8935 -29.27958 133.04518 -29.85547 129.58984 C-29.93213 129.13936 -29.93213 129.13936 -30.32007 126.85962 C-30.4787 125.88887 -30.63734 124.91813 -30.80078 123.91797 C-30.97295 122.90017 -31.14512 121.88238 -31.32251 120.83374 C-32.20271 115.61138 -33.05385 110.38447 -33.89844 105.15625 C-35.601 94.66284 -37.43026 84.211 -39.55078 73.79297 C-39.75695 72.75793 -39.96312 71.7229 -40.17554 70.65649 C-40.37413 69.7038 -40.57273 68.7511 -40.77734 67.76953 C-40.95088 66.92729 -41.12442 66.08505 -41.30322 65.21729 C-41.92578 63.16797 -41.92578 63.16797 -43.92578 61.16797 C-76.57359 70.38443 -105.53981 86.05788 -130.60156 109.08984 C-132.19796 110.51721 -133.84264 111.89181 -135.52344 113.21875 C-137.61931 114.9193 -139.30915 116.55837 -141.05078 118.60547 C-141.64375 119.30156 -142.23672 119.99766 -142.84766 120.71484 C-143.19055 121.11961 -143.19055 121.11961 -144.92578 123.16797 C-145.77656 124.1425 -146.62734 125.11703 -147.50391 126.12109 C-180.46106 164.05939 -194.56573 209.60688 -196.92578 259.16797 C-182.40578 259.16797 -167.88578 259.16797 -152.92578 259.16797 C-152.59578 263.12797 -152.26578 267.08797 -151.92578 271.16797 C-152.4453 271.1709 -152.4453 271.1709 -155.07437 271.18575 C-164.87361 271.243 -174.67262 271.31577 -184.47163 271.40368 C-189.50923 271.44838 -194.54674 271.48764 -199.58447 271.5144 C-204.44756 271.54044 -209.31034 271.58085 -214.17323 271.63116 C-216.02709 271.64782 -217.88101 271.65934 -219.73494 271.66558 C-222.33486 271.67523 -224.93397 271.70329 -227.53369 271.7356 C-228.29758 271.73416 -229.06147 271.73273 -229.84851 271.73125 C-236.23554 271.84324 -240.14646 273.46773 -244.73828 277.85547 C-248.64123 283.76565 -248.09782 291.13557 -248.16406 298.05078 C-248.1681 298.45973 -248.1681 298.45973 -248.18852 300.52927 C-248.20226 302.24524 -248.21303 303.96124 -248.22095 305.67725 C-248.23253 307.42472 -248.25307 309.17216 -248.28247 310.91943 C-248.32517 313.46346 -248.34131 316.00644 -248.35156 318.55078 C-248.36032 318.93835 -248.36032 318.93835 -248.40462 320.89969 C-248.37775 327.64577 -245.88613 331.20762 -241.11328 335.98047 C-231.55234 342.29131 -212.67414 339.31679 -201.5735 339.31514 C-199.5451 339.31845 -197.51671 339.32217 -195.48831 339.32628 C-189.95088 339.33622 -184.41345 339.34001 -178.876 339.34267 C-172.89037 339.3466 -166.90474 339.35617 -160.91911 339.36488 C-147.1737 339.38364 -133.42829 339.39389 -119.68288 339.40234 C-112.88595 339.40656 -106.08902 339.41178 -99.2921 339.41703 C-76.00944 339.4349 -52.72678 339.4499 -29.44411 339.45735 C-27.98543 339.45782 -26.52675 339.4583 -25.06808 339.45878 C-24.70641 339.45889 -24.70641 339.45889 -22.87618 339.45949 C-19.21181 339.46069 -15.54743 339.46191 -11.88306 339.46313 C-11.15587 339.46337 -10.42869 339.46362 -9.67947 339.46386 C13.93028 339.47177 37.53997 339.49523 61.1497 339.52769 C86.13494 339.56198 111.12015 339.5817 136.10542 339.58499 C138.84698 339.58541 141.58854 339.58589 144.3301 339.58642 C145.0051 339.58654 145.68011 339.58666 146.37557 339.58679 C157.23643 339.58912 168.09724 339.60478 178.95808 339.62526 C189.86611 339.6455 200.77406 339.65067 211.6821 339.64149 C217.59097 339.63693 223.49965 339.6389 229.4085 339.65825 C234.81598 339.6758 240.22313 339.67495 245.63061 339.65935 C247.5879 339.65696 249.54522 339.66136 251.50247 339.67318 C254.16179 339.68825 256.81993 339.67866 259.47922 339.66295 C259.85964 339.66806 259.85964 339.66806 261.78476 339.69393 C268.70291 339.60466 273.75888 337.18131 278.94922 332.66797 C281.95614 329.13042 283.31655 326.52063 283.36475 321.86182 C283.37751 321.02059 283.39027 320.17937 283.40341 319.31265 C283.40564 318.41155 283.40786 317.51044 283.41016 316.58203 C283.41681 315.64749 283.42347 314.71295 283.43033 313.75009 C283.44044 311.77482 283.44515 309.79952 283.44482 307.82422 C283.44919 304.81062 283.48551 301.79849 283.52344 298.78516 C283.52931 296.86329 283.53328 294.94141 283.53516 293.01953 C283.54234 292.571 283.54234 292.571 283.5787 290.30118 C283.53847 284.75958 282.81123 281.5378 279.07422 277.16797 C274.51303 273.7238 271.07649 272.06774 265.39069 271.96265 C264.89911 271.95268 264.89911 271.95268 262.41146 271.90222 C261.31307 271.8855 260.21468 271.86879 259.08301 271.85156 C257.89479 271.83074 256.70657 271.80991 255.48234 271.78845 C252.08567 271.7323 248.68902 271.68186 245.29221 271.63554 C243.06397 271.60512 240.83575 271.57322 238.60752 271.54129 C204.98863 271.07094 171.36753 271.08961 137.74609 271.10547 C137.39979 271.10563 137.39979 271.10563 135.64729 271.10643 C114.11111 271.11653 92.57494 271.13998 71.03877 271.16537 C64.32598 271.17326 57.61318 271.18097 50.90039 271.18848 C50.16122 271.1893 49.42204 271.19013 48.66047 271.19099 C36.35693 271.20465 24.05339 271.21441 11.74984 271.22139 C4.22291 271.22585 -3.30401 271.23385 -10.83093 271.24653 C-16.53867 271.25591 -22.2464 271.26029 -27.95414 271.26278 C-30.29479 271.26466 -32.63544 271.26828 -34.97609 271.27372 C-38.15524 271.28087 -41.33433 271.28197 -44.51349 271.28149 C-45.44822 271.28509 -46.38294 271.28868 -47.34599 271.29239 C-48.19159 271.29101 -49.03719 271.28964 -49.90841 271.28822 C-50.64129 271.28915 -51.37418 271.29007 -52.12928 271.29102 C-53.92578 271.16797 -53.92578 271.16797 -55.92578 270.16797 C-55.92578 267.19797 -55.92578 264.22797 -55.92578 261.16797 C-41.70124 259.99332 -27.497 259.99531 -13.23242 259.96265 C-10.56014 259.95305 -7.88787 259.94308 -5.21559 259.93265 C0.5076 259.91104 6.23079 259.89284 11.95399 259.87704 C20.2285 259.8542 28.50298 259.82608 36.77746 259.79672 C50.20661 259.74922 63.63577 259.70591 77.06494 259.66528 C90.09978 259.62584 103.13461 259.58439 116.16943 259.54028 C116.57207 259.53892 116.57207 259.53892 118.60965 259.53203 C122.65001 259.51835 126.69036 259.50463 130.73071 259.49089 C164.17853 259.3772 197.62636 259.27033 231.07422 259.16797 C231.0882 256.12922 231.0984 253.09053 231.10645 250.05176 C231.10861 249.62438 231.10861 249.62438 231.11954 247.46158 C231.13197 241.19797 230.7764 235.11493 229.82422 228.91797 C229.69 227.99742 229.55577 227.07687 229.41748 226.12842 C228.21269 218.27878 226.39359 210.76851 224.07422 203.16797 C223.71586 201.90082 223.3575 200.63367 222.98828 199.32812 C215.58501 173.67506 202.24641 149.55222 185.07422 129.16797 C184.1833 128.07967 183.2927 126.99111 182.40234 125.90234 C157.68106 96.00267 117.42545 65.88024 78.07422 60.16797 C76.44763 65.43169 75.43652 70.5974 74.63672 76.04297 C74.3748 77.75407 74.11176 79.46501 73.84766 81.17578 C73.71714 82.02431 73.58662 82.87283 73.45215 83.74707 C70.55499 102.30535 66.77322 120.75496 63.07422 139.16797 C59.77422 138.83797 56.47422 138.50797 53.07422 138.16797 C52.93662 132.08008 53.3302 126.56012 54.50781 120.59766 C54.66114 119.78252 54.81446 118.96737 54.97243 118.12753 C55.30523 116.35856 55.64127 114.59019 55.98022 112.82239 C56.90707 107.97548 57.8018 103.12268 58.69531 98.26953 C58.88596 97.23478 59.07661 96.20002 59.27304 95.13391 C61.46719 83.14367 63.48688 71.12485 65.46756 59.09772 C65.87038 56.65439 66.27569 54.21147 66.68356 51.76898 C67.25801 48.32492 67.82368 44.87954 68.38672 41.43359 C68.55821 40.4114 68.7297 39.3892 68.90639 38.33603 C71.17226 24.26889 71.17226 24.26889 68.90234 19.92578 C68.38156 19.38695 67.86078 18.84812 67.32422 18.29297 C66.81375 17.73867 66.30328 17.18437 65.77734 16.61328 C57.29715 9.41679 41.58076 12.00424 31.13672 12.04297 C30.45088 12.04518 29.76504 12.0474 29.05841 12.04968 C24.54819 12.06642 20.0383 12.10134 15.52826 12.14514 C12.97149 12.16892 10.41472 12.1875 7.85791 12.20605 Z M-139.92578 350.16797 C-140.83486 353.57507 -141.15504 356.69475 -141.23828 360.23047 C-141.27566 361.27332 -141.31305 362.31617 -141.35156 363.39062 C-140.92578 366.16797 -140.92578 366.16797 -139.37476 367.80957 C-136.06414 369.6459 -133.00971 369.64603 -129.31641 369.67969 C-128.953 369.68866 -128.953 369.68866 -127.11395 369.73409 C-124.80129 369.7881 -122.48883 369.82205 -120.17578 369.85547 C-118.60414 369.88865 -117.03252 369.92314 -115.46094 369.95898 C-111.61603 370.04382 -107.77119 370.11067 -103.92578 370.16797 C-99.70685 378.51226 -95.67839 386.94102 -91.67969 395.39258 C-91.20918 396.38193 -90.73867 397.37129 -90.25391 398.39062 C-89.83013 399.28531 -89.40635 400.18 -88.96973 401.10181 C-87.92578 403.16797 -87.92578 403.16797 -86.92578 404.16797 C-86.36328 406.79297 -86.36328 406.79297 -86.92578 410.16797 C-89.25966 412.89953 -92.08943 414.97967 -94.92578 417.16797 C-96.84729 418.70359 -98.76384 420.24545 -100.67578 421.79297 C-101.12695 422.15004 -101.12695 422.15004 -103.41016 423.95703 C-105.99949 426.23275 -108.07706 428.2513 -109.92578 431.16797 C-109.59847 435.04605 -108.58712 437.00271 -105.82812 439.69141 C-105.19536 440.31652 -104.56259 440.94164 -103.91064 441.58569 C-103.23501 442.23159 -102.55938 442.8775 -101.86328 443.54297 C-101.17734 444.21272 -100.4914 444.88247 -99.78467 445.57251 C-95.87811 449.3646 -91.93966 453.11214 -87.75781 456.60156 C-86.3373 457.81612 -84.96918 459.09209 -83.625 460.39062 C-82.83738 461.14215 -82.04977 461.89367 -81.23828 462.66797 C-80.53316 463.35891 -79.82805 464.04984 -79.10156 464.76172 C-76.92578 466.16797 -76.92578 466.16797 -74.59863 466.04688 C-71.11225 464.90046 -69.51198 463.16153 -66.98438 460.51172 C-66.52772 460.04186 -66.52772 460.04186 -64.2168 457.66406 C-63.26467 456.66628 -62.3135 455.66757 -61.36328 454.66797 C-59.49592 452.7109 -57.61838 450.76547 -55.73438 448.82422 C-54.90736 447.95604 -54.08035 447.08785 -53.22827 446.19336 C-50.96511 444.20257 -49.90077 443.34827 -46.92578 443.16797 C-44.19826 444.28136 -41.6632 445.45427 -39.05078 446.79297 C-31.48819 450.51852 -23.93902 453.52083 -15.92578 456.16797 C-15.36568 456.35488 -15.36568 456.35488 -12.53125 457.30078 C-11.67145 457.58695 -10.81164 457.87313 -9.92578 458.16797 C-9.00258 462.12542 -8.76227 465.87081 -8.67969 469.92969 C-8.64682 471.21295 -8.61395 472.49621 -8.58008 473.81836 C-8.53247 475.84606 -8.48793 477.87372 -8.44897 479.90161 C-8.40938 481.86949 -8.35722 483.83711 -8.30469 485.80469 C-8.27963 486.97733 -8.25458 488.14998 -8.22876 489.35815 C-7.92578 492.16797 -7.92578 492.16797 -5.92578 494.16797 C-1.76283 495.5356 2.48538 495.31152 6.82031 495.30078 C7.66844 495.30174 8.51657 495.30269 9.3904 495.30368 C11.18157 495.30436 12.97275 495.30252 14.76392 495.29834 C17.49827 495.293 20.23245 495.29829 22.9668 495.30469 C24.70964 495.30403 26.45247 495.30275 28.19531 495.30078 C29.01004 495.30281 29.82476 495.30483 30.66417 495.30692 C34.6014 495.29075 38.22981 495.13981 42.07422 494.16797 C44.1425 486.55443 44.31234 479.46763 44.19922 471.60547 C44.1902 470.406 44.18117 469.20652 44.17188 467.9707 C44.14849 465.03625 44.11572 462.10222 44.07422 459.16797 C44.68459 458.95012 44.68459 458.95012 47.77344 457.84766 C55.41446 455.09238 62.97905 452.33476 70.32422 448.85547 C79.35545 444.61422 79.35545 444.61422 83.07422 444.16797 C88.19016 446.26916 91.46696 449.33922 95.25 453.30078 C98.34207 456.46568 101.71291 459.29596 105.07422 462.16797 C105.52797 462.58047 105.52797 462.58047 107.82422 464.66797 C110.07422 466.16797 110.07422 466.16797 111.98657 465.96021 C114.47223 465.01693 115.81767 463.83891 117.72656 461.99219 C118.41492 461.33452 119.10328 460.67686 119.8125 459.99927 C120.53824 459.29181 121.26398 458.58436 122.01172 457.85547 C123.53036 456.39361 125.0499 454.93268 126.57031 453.47266 C127.32554 452.7453 128.08077 452.01795 128.85889 451.26855 C130.8895 449.34312 132.95161 447.46783 135.04688 445.61328 C135.64573 445.08001 136.24458 444.54674 136.86157 443.99731 C137.97558 443.01067 139.09685 442.03214 140.22632 441.06323 C142.49904 439.03176 143.9726 437.4259 145.09766 434.57031 C145.06747 431.47595 144.32548 430.62928 142.19922 428.41797 C141.55855 427.7425 140.91789 427.06703 140.25781 426.37109 C139.53723 425.64406 138.81664 424.91703 138.07422 424.16797 C137.67783 423.75289 137.67783 423.75289 135.67188 421.65234 C131.17051 417.01237 131.17051 417.01237 129.07422 415.16797 C128.41422 415.16797 127.75422 415.16797 127.07422 415.16797 C126.40755 413.83464 125.74089 412.5013 125.07422 411.16797 C124.70168 410.54922 124.32914 409.93047 123.94531 409.29297 C122.07482 404.72997 125.06108 399.61128 126.84766 395.30273 C128.31559 391.86522 129.83066 388.4499 131.35938 385.03906 C133.14883 381.03754 134.77645 376.9826 136.34766 372.89062 C137.07422 371.16797 137.07422 371.16797 138.07422 370.16797 C140.38094 370.1168 142.6892 370.13272 144.99609 370.17578 C146.42838 370.19331 147.86067 370.21022 149.29297 370.22656 C151.55555 370.25744 153.81776 370.29284 156.08008 370.33936 C158.26046 370.38187 160.4404 370.40519 162.62109 370.42578 C163.92917 370.44786 165.23725 370.46993 166.58496 370.49268 C170.07422 370.16797 170.07422 370.16797 175.07422 367.16797 C175.07422 361.55797 175.07422 355.94797 175.07422 350.16797 C153.62422 350.16797 132.17422 350.16797 110.07422 350.16797 C109.74422 353.46797 109.41422 356.76797 109.07422 360.16797 C105.44115 375.79173 98.73048 390.14161 88.07422 402.16797 C87.5457 402.84988 87.01719 403.5318 86.47266 404.23438 C74.13173 419.76692 52.71747 428.09814 33.75 431.82031 C6.53721 434.3941 -20.04232 430.00497 -41.98828 412.76172 C-44.37774 410.62827 -46.67016 408.44149 -48.92578 406.16797 C-49.36922 405.75547 -49.36922 405.75547 -51.61328 403.66797 C-65.26687 388.90733 -72.09132 370.68888 -75.92578 351.16797 C-79.30042 350.14585 -82.37039 350.04705 -85.8877 350.05444 C-86.48817 350.05448 -86.48817 350.05448 -89.52692 350.05467 C-90.8187 350.05983 -92.11048 350.06499 -93.44141 350.07031 C-94.7809 350.07218 -96.1204 350.0736 -97.4599 350.0746 C-100.97801 350.07841 -104.49607 350.08823 -108.01416 350.0993 C-111.60709 350.10955 -115.20003 350.1141 -118.79297 350.11914 C-125.83726 350.12985 -132.88152 350.14691 -139.92578 350.16797 Z M-62.92578 350.16797 C-59.56195 372.03287 -50.45364 391.41018 -32.30859 404.96875 C-24.97767 410.15535 -17.44026 414.2303 -8.92578 417.16797 C-8.47139 417.32652 -8.47139 417.32652 -6.17188 418.12891 C-1.64499 419.59964 2.25926 420.5481 7.07422 420.16797 C7.23922 418.51797 7.23922 418.51797 8.07422 410.16797 C8.73422 410.16797 9.39422 410.16797 10.07422 410.16797 C9.74422 412.80797 9.41422 415.44797 9.07422 418.16797 C9.56922 418.33297 9.56922 418.33297 12.07422 419.16797 C13.39422 417.51797 14.71422 415.86797 16.07422 414.16797 C14.75422 416.47797 13.43422 418.78797 12.07422 421.16797 C18.45578 423.29516 24.74153 421.86544 31.13672 420.48047 C31.55309 420.39044 31.55309 420.39044 33.66016 419.93481 C56.54858 414.79063 75.39029 402.34655 88.26172 382.48047 C91.60678 376.7002 93.32712 370.5768 95.07422 364.16797 C95.48992 362.87599 95.90637 361.58425 96.32422 360.29297 C97.07422 357.16797 97.07422 357.16797 97.07422 350.16797 C44.27422 350.16797 -8.52578 350.16797 -62.92578 350.16797 Z " fill="#15171D" transform="translate(274.92578125,13.83203125)"/>


<path d="M0 0 C4.81816 4.21589 4.81816 4.21589 5.55078 7.375 C4.85265 10.70224 3.31898 11.71324 0.58105 13.58838 C-0.04382 13.99234 -0.66869 14.3963 -1.3125 14.8125 C-2.60578 15.69095 -3.89875 16.56986 -5.19141 17.44922 C-5.5144 17.66473 -5.5144 17.66473 -7.14893 18.75537 C-17.04394 25.4086 -27.3848 32.39448 -35.03516 41.62891 C-36.57418 43.48613 -38.13978 45.29206 -39.74609 47.08984 C-50.60058 59.31891 -59.10052 72.17296 -66 87 C-70.26677 87.13625 -72.62338 86.79777 -76 84 C-76.80607 79.20736 -74.5944 75.50154 -72.4375 71.375 C-72.07398 70.66714 -71.71047 69.95929 -71.33594 69.22998 C-56.24559 40.26519 -30.18144 13.2589 0 0 Z " fill="#15171D" transform="translate(197,114)"/>
<path d="M0 0 C2.4375 1.625 2.4375 1.625 4 4 C4.41797 6.82812 4.41797 6.82812 4 10 C1.80469 12.63281 1.80469 12.63281 -1.125 15.125 C-2.07633 15.95258 -3.02766 16.78016 -4.00781 17.63281 C-7 20 -7 20 -10.125 22.07812 C-21.8281 29.90139 -31.87942 43.76989 -37.5625 56.5 C-39.50289 59.8746 -41.3533 60.76012 -45 62 C-47.7521 61.74981 -49.54415 61.22792 -52 60 C-53.75166 53.81766 -53.11208 50.43443 -50.125 44.75 C-48.78436 42.46525 -47.4289 40.2271 -46 38 C-45.60829 37.38882 -45.21657 36.77765 -44.81299 36.14795 C-43.62222 34.31515 -42.41241 32.49763 -41.1875 30.6875 C-40.80288 30.11806 -40.41825 29.54861 -40.02197 28.96191 C-39.06868 27.60176 -38.04043 26.29471 -37 25 C-36.34 25 -35.68 25 -35 25 C-34.76281 24.43797 -34.52562 23.87594 -34.28125 23.29688 C-28.47821 12.89386 -12.53793 -1.62529 0 0 Z " fill="#1AA053" transform="translate(201,145)"/>
<path d="M0 0 C1.9375 1.125 1.9375 1.125 3 3 C3.5 5.875 3.5 5.875 3 9 C0.9375 11.5 0.9375 11.5 -2 14 C-2.5543 14.48469 -3.10859 14.96938 -3.67969 15.46875 C-6.41373 17.8504 -9.16709 20.12617 -12.0625 22.3125 C-15.24121 25.22068 -17.32463 28.19094 -19.60547 31.81641 C-21 34 -21 34 -22.59766 36.08203 C-24 38 -24 38 -25.25 41.125 C-27 44 -27 44 -30.6875 45.375 C-31.78062 45.58125 -32.87375 45.7875 -34 46 C-36.625 44.0625 -36.625 44.0625 -39 41 C-39.32508 34.27744 -35.26658 27.90424 -31 23 C-30.34 23 -29.68 23 -29 23 C-28.91041 22.66613 -28.91041 22.66613 -28.45703 20.97656 C-26.33555 16.64261 -23.11505 13.72086 -19.6875 10.375 C-19.02299 9.70727 -18.35848 9.03953 -17.67383 8.35156 C-12.1581 2.89584 -8.20357 -0.91151 0 0 Z " fill="#1AA053" transform="translate(212,169)"/>
<path d="M0 0 C1.18916 -0.03738 2.37832 -0.07477 3.60352 -0.11328 C12.35315 -0.20171 12.35315 -0.20171 16.47656 2.64844 C18.85086 6.43214 18.85086 6.43214 18.75 9.375 C18.75064 9.69469 18.75064 9.69469 18.75391 11.3125 C17.907 14.39641 16.40036 16.08713 14.1875 18.375 C11.42603 19.02197 11.42603 19.02197 8.28516 19.03906 C7.71636 19.04229 7.71636 19.04229 4.83789 19.05859 C3.65389 19.03926 2.46988 19.01992 1.25 19 C0.65993 19.00967 0.65993 19.00967 -2.32617 19.05859 C-10.92208 19.00995 -10.92208 19.00995 -15.06641 16.05469 C-17.26832 12.67546 -17.8125 10.40556 -17.8125 6.375 C-14.17178 -1.5999 -7.81181 0.09225 0 0 Z " fill="#1AA053" transform="translate(190.8125,270.625)"/>
<path d="M0 0 C0.93715 0.01031 1.8743 0.02062 2.83984 0.03125 C7.47674 0.20226 9.82447 0.37004 13.625 3.21094 C16.09301 6.71756 16.10125 8.66628 15.5 12.875 C13.3 17.475 13.3 17.475 10.5 18.875 C6.4025 19.19854 2.29619 19.19947 -1.8125 19.25 C-2.38323 19.26869 -2.38323 19.26869 -5.27148 19.36328 C-14.68067 19.46227 -14.68067 19.46227 -17.73438 16.50781 C-19.58767 13.74428 -20.41704 12.19336 -20.5 8.875 C-19.52688 5.46907 -18.37281 3.003 -15.5 0.875 C-10.29876 -0.42531 -5.31758 -0.19017 0 0 Z " fill="#1AA053" transform="translate(152.5,270.125)"/>
<path d="M0 0 C1.32 0 2.64 0 4 0 C6.22731 7.36726 2.95029 13.21128 0 20 C0.66 20 1.32 20 2 20 C2 20.66 2 21.32 2 22 C2.92684 22.20496 3.85367 22.40992 4.80859 22.62109 C6.00613 22.89051 7.20367 23.15992 8.4375 23.4375 C9.63246 23.70434 10.82742 23.97117 12.05859 24.24609 C15 25 15 25 16 26 C16.49625 30.94834 15.54442 33.40697 12.625 37.375 C12.31176 37.81199 12.31176 37.81199 10.72656 40.02344 C10.1568 40.6757 9.58703 41.32797 9 42 C8.34 42 7.68 42 7 42 C8.33977 37.9807 10.33931 34.9793 12.87891 31.64844 C14 30 14 30 15 27 C14.24074 26.95102 13.48148 26.90203 12.69922 26.85156 C11.70535 26.7768 10.71148 26.70203 9.6875 26.625 C8.70137 26.55539 7.71523 26.48578 6.69922 26.41406 C2.2991 25.73908 -0.01621 23.08668 -3 20 C-3.18176 20.62648 -3.36352 21.25297 -3.55078 21.89844 C-3.80215 22.7157 -4.05352 23.53297 -4.3125 24.375 C-4.43432 24.78105 -4.43432 24.78105 -5.05078 26.83594 C-6 29 -6 29 -9 31 C-6.69 31.66 -4.38 32.32 -2 33 C-2.48321 39.20541 -3.33318 44.99945 -5 51 C-5.66 51 -6.32 51 -7 51 C-7.09765 46.21521 -6.77113 41.72314 -6 37 C-6.69867 36.75766 -7.39734 36.51531 -8.11719 36.26562 C-9.02727 35.93047 -9.93734 35.59531 -10.875 35.25 C-11.77992 34.92516 -12.68484 34.60031 -13.61719 34.26562 C-16.32047 32.82978 -16.96707 31.82572 -18 29 C-17.35934 28.1518 -16.71867 27.30359 -16.05859 26.42969 C-10.64704 19.13494 -6.15354 11.8855 -2.27734 3.66797 C-1 1 -1 1 0 0 Z " fill="#15171D" transform="translate(291,373)"/>
<path d="M0 0 C0.4009 0.42152 0.8018 0.84305 1.21484 1.27734 C5.37842 5.28986 8.29095 6.68522 14.08203 6.89453 C16 7 16 7 18 8 C17.40075 10.88305 16.54854 12.99659 14.93359 15.45312 C14.53076 16.07187 14.12793 16.69063 13.71289 17.32812 C13.29201 17.96234 12.87113 18.59656 12.4375 19.25 C12.01275 19.89969 11.58801 20.54937 11.15039 21.21875 C10.10527 22.81579 9.0533 24.40834 8 26 C7.67 25.34 7.34 24.68 7 24 C7.70703 21.97656 7.70703 21.97656 8.8125 19.625 C9.16957 18.85414 9.52664 18.08328 9.89453 17.28906 C10.91156 15.18313 11.94652 13.0879 13 11 C11.125 11.1875 11.125 11.1875 9 12 C7.75 14.5625 7.75 14.5625 7 17 C6.34 17 5.68 17 5 17 C4.7525 17.88687 4.505 18.77375 4.25 19.6875 C2.96065 23.10427 1.4002 25.27977 -1 28 C-0.43394 23.30977 0.18538 18.655 1 14 C-1.64 13.67 -4.28 13.34 -7 13 C-6.55012 12.61199 -6.10023 12.22398 -5.63672 11.82422 C-3.6639 9.6254 -2.85108 7.57011 -1.8125 4.8125 C-1.46832 3.91145 -1.12414 3.01039 -0.76953 2.08203 C-0.51559 1.39496 -0.26164 0.70789 0 0 Z " fill="#F4B41A" transform="translate(288,392)"/>
<path d="M0 0 C2.0625 0.4375 2.0625 0.4375 4 1 C3.73188 1.495 3.46375 1.99 3.1875 2.5 C1.56125 5.92369 0.30485 9.44132 -1 13 C-0.34 13 0.32 13 1 13 C-0.34704 19.69126 -5.16913 24.43026 -10 29 C-10.66 29.66 -11.32 30.32 -12 31 C-12.66 30.67 -13.32 30.34 -14 30 C-13 21.42857 -13 21.42857 -12 18 C-11.34 18 -10.68 18 -10 18 C-9.73188 17.29875 -9.46375 16.5975 -9.1875 15.875 C-7.93186 12.83502 -6.49765 9.92722 -5 7 C-4.34 7 -3.68 7 -3 7 C-2.69063 6.03062 -2.38125 5.06125 -2.0625 4.0625 C-1 1 -1 1 0 0 Z " fill="#15171D" transform="translate(298,402)"/>
</svg>
